# xmcd
#
# Track frame offsets:
#	150
#	10960
#	23175
#	36672
#	46975
#	59042
#	77252
#	90412
#	100735
#	113765
#	125837
#	142117
#
# Disc length: 2024 seconds
#
# Revision: 2
# Processed by: cddbd v1.4PL0 Copyright (c) Steve Scherf et al.
# Submitted via: audiograbber 1.81.02
#
DISCID=a007e60c
DTITLE=Mike Toppins - Heigh-Ho Banjo (Favorite Disney Tunes Performed Country/B
DTITLE=luegrass Style)
DYEAR=1900
DGENRE=
TTITLE0=Little April Shower (Bambi)
TTITLE1=Zip-A-Dee-Doo-Dah (Song Of The South)
TTITLE2=Cruella De Vil (101 Dalmations)
TTITLE3=You Ain't Never Had A Friend Like Me (Aladdin)
TTITLE4=Heigh-Ho (Snow White)
TTITLE5=Everybody Wants To Be A Cat (Aristocats)
TTITLE6=Chim Chim Cher-ee (Mary Poppins)
TTITLE7=Oo-De-Lally (Robin Hood)
TTITLE8=Be Our Guest (Beauty And The Beast)
TTITLE9=I Wanna Be Like You (Jungle Book)
TTITLE10=Bare Necessities (Jungle Book)
TTITLE11=When You Wish Upon A Star (Pinocchio)
EXTD=
EXTT0=
EXTT1=
EXTT2=
EXTT3=
EXTT4=
EXTT5=
EXTT6=
EXTT7=
EXTT8=
EXTT9=
EXTT10=
EXTT11=
PLAYORDER=
